<svg width="55" height="55" viewBox="0 0 55 55" fill="none" xmlns="http://www.w3.org/2000/svg">
<path d="M8.66569 12.0835C10.0199 8.92373 13.1269 6.875 16.5646 6.875H38.4354C41.8731 6.875 44.9801 8.92372 46.3343 12.0835L49.0565 18.4352C49.3149 19.0383 49.7788 19.5303 50.3657 19.8237C52.0802 20.681 53.3029 22.2818 53.6788 24.1614L54.8331 29.9329C54.9441 30.4878 55 31.0523 55 31.6183V33.038C55 35.836 53.6582 38.3411 51.5625 39.9043V46.4062C51.5625 47.3555 50.793 48.125 49.8438 48.125H42.9688C42.0195 48.125 41.25 47.3555 41.25 46.4062V41.8068C36.81 41.9718 31.8154 42.1094 27.5 42.1094C23.1846 42.1094 18.19 41.9718 13.75 41.8068V46.4062C13.75 47.3555 12.9805 48.125 12.0312 48.125H5.15625C4.20701 48.125 3.4375 47.3555 3.4375 46.4062V39.9043C1.34176 38.3411 0 35.836 0 33.038V31.6183C0 31.0523 0.0558997 30.4878 0.166885 29.9329L1.32117 24.1614C1.6971 22.2818 2.91979 20.681 4.6343 19.8237C5.22118 19.5303 5.68506 19.0383 5.94353 18.4352L8.66569 12.0835ZM10.3125 34.375C12.211 34.375 13.75 32.836 13.75 30.9375C13.75 29.039 12.211 27.5 10.3125 27.5C8.41402 27.5 6.875 29.039 6.875 30.9375C6.875 32.836 8.41402 34.375 10.3125 34.375ZM44.6875 34.375C46.586 34.375 48.125 32.836 48.125 30.9375C48.125 29.039 46.586 27.5 44.6875 27.5C42.789 27.5 41.25 29.039 41.25 30.9375C41.25 32.836 42.789 34.375 44.6875 34.375ZM20.625 27.5C18.7265 27.5 17.1875 29.039 17.1875 30.9375C17.1875 32.836 18.7265 34.375 20.625 34.375H34.375C36.2735 34.375 37.8125 32.836 37.8125 30.9375C37.8125 29.039 36.2735 27.5 34.375 27.5H20.625ZM9.98828 17.8358C9.38293 19.0465 10.3501 20.4598 11.6993 20.3512C14.8227 20.0996 23.2141 19.7656 27.5 19.7656C31.7858 19.7656 40.1772 20.0996 43.3006 20.3512C44.6498 20.4598 45.617 19.0465 45.0116 17.8358L41.725 11.2626C41.4339 10.6803 40.8387 10.3125 40.1877 10.3125H14.8122C14.1612 10.3125 13.566 10.6803 13.2749 11.2626L9.98828 17.8358Z" fill="#22F268"/>
</svg>
